<?xml version="1.0" encoding="UTF-8"?><svg id="a" xmlns="http://www.w3.org/2000/svg" width="166.816" height="168.177" xmlns:xlink="http://www.w3.org/1999/xlink" viewBox="0 0 166.816 168.177"><defs><linearGradient id="b" x1="83.556" y1="162.124" x2="83.556" y2="44.809" gradientUnits="userSpaceOnUse"><stop offset=".188" stop-color="#175c82"/><stop offset="1" stop-color="#004063"/></linearGradient><linearGradient id="c" x1="85.273" y1="18.075" x2="81.665" y2="107.638" gradientUnits="userSpaceOnUse"><stop offset=".055" stop-color="#ce0019"/><stop offset=".255" stop-color="#c40017"/><stop offset=".591" stop-color="#aa0014"/><stop offset="1" stop-color="#820010"/></linearGradient></defs><path d="M153.933,12.888C144.997,3.95,132.083,0,116.337,0H50.479c-15.744,0-28.657,3.949-37.592,12.885C3.949,21.823,0,34.739,0,50.486v67.205c0,15.745,3.948,28.66,12.884,37.598,8.936,8.938,21.85,12.888,37.595,12.888h65.858c15.746,0,28.66-3.95,37.596-12.888,8.936-8.938,12.883-21.853,12.883-37.598V50.486c0-15.745-3.948-28.66-12.883-37.598ZM161.178,117.595c0,29.663-14.859,44.528-44.521,44.528H50.455c-29.663,0-44.521-14.866-44.521-44.528V50.303c0-1.892.061-3.723.182-5.494,12.938,8.621,28.899,15.629,46.509,20.479l-35.464,34.4,36.647-9.229-4.672,5.443v47.842h21.13v-37.663l37.019,37.663h17.5v-63.827l-17.5,5.474v33.615l-3.843-4.07-28.365-30.284c19.418-4.694,78.969-19.105,86.102-22.415v55.357ZM161.178,54.234c-6.911,3.272-18.751,7.397-28.363,9.077l-30.358-11.526,9.64-40.297-35.519,30.557-44.483-16.855,19.933,32.465c-17.241-4.999-32.679-12.143-44.871-20.859C11.261,16.135,25.702,5.781,50.455,5.781h66.202c29.78,0,44.521,14.866,44.521,44.522v3.931Z" fill="#e5e5e5"/><path d="M153.933,12.888C144.997,3.95,132.083,0,116.337,0H50.479c-15.744,0-28.657,3.949-37.592,12.885C3.949,21.823,0,34.739,0,50.486v67.205c0,15.745,3.948,28.66,12.884,37.598,8.936,8.938,21.85,12.888,37.595,12.888h65.858c15.746,0,28.66-3.95,37.596-12.888,8.936-8.938,12.883-21.853,12.883-37.598V50.486c0-15.745-3.948-28.66-12.883-37.598ZM161.178,117.595c0,29.663-14.859,44.528-44.521,44.528H50.455c-29.663,0-44.521-14.866-44.521-44.528V50.303c0-1.892.061-3.723.182-5.494,12.938,8.621,28.899,15.629,46.509,20.479l-35.464,34.4,36.647-9.229-4.672,5.443v47.842h21.13v-37.663l37.019,37.663h17.5v-63.827l-17.5,5.474v33.615l-3.843-4.07-28.365-30.284c19.418-4.694,78.969-19.105,86.102-22.415v55.357ZM161.178,54.234c-6.911,3.272-18.751,7.397-28.363,9.077l-30.358-11.526,9.64-40.297-35.519,30.557-44.483-16.855,19.933,32.465c-17.241-4.999-32.679-12.143-44.871-20.859C11.261,16.135,25.702,5.781,50.455,5.781h66.202c29.78,0,44.521,14.866,44.521,44.522v3.931Z" fill="#e5e5e5"/><path d="M103.441,114.936l3.843,4.07v-33.615l17.5-5.474v63.827h-17.5l-37.019-37.663v37.663h-21.13v-47.842l4.672-5.443-36.647,9.229,35.464-34.4c-17.61-4.849-33.572-11.857-46.509-20.479-.121,1.771-.182,3.602-.182,5.494v67.292c0,29.663,14.859,44.528,44.521,44.528h66.202c29.662,0,44.521-14.866,44.521-44.528v-55.357c-7.133,3.31-66.684,17.721-86.102,22.415l28.365,30.284Z" fill="url(#b)"/><path d="M116.657,5.781H50.455c-24.753,0-39.194,10.354-43.298,31.014,12.192,8.716,27.63,15.861,44.871,20.859l-19.933-32.465,44.483,16.855,35.519-30.557-9.64,40.297,30.358,11.526c9.611-1.679,21.452-5.804,28.363-9.077v-3.931c0-29.656-14.741-44.522-44.521-44.522Z" fill="url(#c)"/></svg>